<mxfile host="65bd71144e">
    <diagram id="xFZ7X0_nyTQOydjT2sav" name="Page-1">
        <mxGraphModel dx="1074" dy="779" grid="1" gridSize="10" guides="1" tooltips="1" connect="1" arrows="1" fold="1" page="1" pageScale="1" pageWidth="1169" pageHeight="1654" math="0" shadow="0">
            <root>
                <mxCell id="0"/>
                <mxCell id="1" parent="0"/>
                <mxCell id="2" value="" style="whiteSpace=wrap;html=1;aspect=fixed;" parent="1" vertex="1">
                    <mxGeometry x="170" y="40" width="740" height="740" as="geometry"/>
                </mxCell>
                <mxCell id="4" value="&lt;p style=&quot;margin: 0px ; margin-top: 4px ; text-align: center&quot;&gt;&lt;b&gt;Vérins&lt;/b&gt;&lt;/p&gt;&lt;hr&gt;&lt;p style=&quot;font-size: 10px ; margin: 0px ; margin-top: 4px ; text-align: center&quot;&gt;ID&lt;/p&gt;&lt;p style=&quot;font-size: 10px ; margin: 0px ; margin-top: 4px ; text-align: center&quot;&gt;Model&lt;/p&gt;&lt;p style=&quot;font-size: 10px ; margin: 0px ; margin-top: 4px ; text-align: center&quot;&gt;volume&lt;/p&gt;&lt;p style=&quot;font-size: 10px ; margin: 0px ; margin-top: 4px ; text-align: center&quot;&gt;charge max&lt;/p&gt;&lt;p style=&quot;font-size: 10px ; margin: 0px ; margin-top: 4px ; text-align: center&quot;&gt;&lt;br&gt;&lt;/p&gt;" style="shape=rect;html=1;overflow=fill;whiteSpace=wrap;" parent="1" vertex="1">
                    <mxGeometry x="260" y="190" width="100" height="100" as="geometry"/>
                </mxCell>
                <mxCell id="5" value="&lt;p style=&quot;margin: 0px ; margin-top: 4px ; text-align: center&quot;&gt;&lt;b&gt;Affaire&lt;/b&gt;&lt;/p&gt;&lt;hr&gt;&lt;p style=&quot;font-size: 10px ; margin: 0px ; margin-top: 4px ; text-align: center&quot;&gt;ID&lt;/p&gt;&lt;p style=&quot;font-size: 10px ; margin: 0px ; margin-top: 4px ; text-align: center&quot;&gt;ID_Client&lt;/p&gt;&lt;p style=&quot;font-size: 10px ; margin: 0px ; margin-top: 4px ; text-align: center&quot;&gt;&lt;br&gt;&lt;/p&gt;" style="shape=rect;html=1;overflow=fill;whiteSpace=wrap;" parent="1" vertex="1">
                    <mxGeometry x="510" y="190" width="100" height="100" as="geometry"/>
                </mxCell>
                <mxCell id="6" value="&lt;p style=&quot;margin: 0px ; margin-top: 4px ; text-align: center&quot;&gt;&lt;b&gt;Essai&lt;/b&gt;&lt;/p&gt;&lt;hr&gt;&lt;p style=&quot;font-size: 10px ; margin: 0px ; margin-top: 4px ; text-align: center&quot;&gt;ID&lt;/p&gt;&lt;p style=&quot;font-size: 10px ; margin: 0px ; margin-top: 4px ; text-align: center&quot;&gt;Mode Op&lt;/p&gt;&lt;p style=&quot;font-size: 10px ; margin: 0px ; margin-top: 4px ; text-align: center&quot;&gt;&lt;br&gt;&lt;/p&gt;" style="shape=rect;html=1;overflow=fill;whiteSpace=wrap;" parent="1" vertex="1">
                    <mxGeometry x="720" y="190" width="100" height="100" as="geometry"/>
                </mxCell>
                <mxCell id="7" value="&lt;p style=&quot;margin: 0px ; margin-top: 4px ; text-align: center&quot;&gt;&lt;b&gt;Users&lt;/b&gt;&lt;/p&gt;&lt;hr&gt;&lt;p style=&quot;font-size: 10px ; margin: 0px ; margin-top: 4px ; text-align: center&quot;&gt;ID&lt;/p&gt;&lt;p style=&quot;font-size: 10px ; margin: 0px ; margin-top: 4px ; text-align: center&quot;&gt;Identifiant&lt;/p&gt;&lt;p style=&quot;font-size: 10px ; margin: 0px ; margin-top: 4px ; text-align: center&quot;&gt;MDPC&lt;/p&gt;&lt;p style=&quot;font-size: 10px ; margin: 0px ; margin-top: 4px ; text-align: center&quot;&gt;Log Out&lt;/p&gt;&lt;span style=&quot;color: rgba(0 , 0 , 0 , 0) ; font-family: monospace ; font-size: 0px&quot;&gt;%3CmxGraphModel%3E%3Croot%3E%3CmxCell%20id%3D%220%22%2F%3E%3CmxCell%20id%3D%221%22%20parent%3D%220%22%2F%3E%3CmxCell%20id%3D%222%22%20value%3D%22%26lt%3Bp%20style%3D%26quot%3Bmargin%3A%200px%20%3B%20margin-top%3A%204px%20%3B%20text-align%3A%20center%26quot%3B%26gt%3B%26lt%3Bb%26gt%3BV%C3%A9rins%26lt%3B%2Fb%26gt%3B%26lt%3B%2Fp%26gt%3B%26lt%3Bhr%26gt%3B%26lt%3Bp%20style%3D%26quot%3Bfont-size%3A%2010px%20%3B%20margin%3A%200px%20%3B%20margin-top%3A%204px%20%3B%20text-align%3A%20center%26quot%3B%26gt%3BID%26lt%3B%2Fp%26gt%3B%26lt%3Bp%20style%3D%26quot%3Bfont-size%3A%2010px%20%3B%20margin%3A%200px%20%3B%20margin-top%3A%204px%20%3B%20text-align%3A%20center%26quot%3B%26gt%3BModel%26lt%3B%2Fp%26gt%3B%26lt%3Bp%20style%3D%26quot%3Bfont-size%3A%2010px%20%3B%20margin%3A%200px%20%3B%20margin-top%3A%204px%20%3B%20text-align%3A%20center%26quot%3B%26gt%3Bvolume%26lt%3B%2Fp%26gt%3B%26lt%3Bp%20style%3D%26quot%3Bfont-size%3A%2010px%20%3B%20margin%3A%200px%20%3B%20margin-top%3A%204px%20%3B%20text-align%3A%20center%26quot%3B%26gt%3Bcharge%20max%26lt%3B%2Fp%26gt%3B%26lt%3Bp%20style%3D%26quot%3Bfont-size%3A%2010px%20%3B%20margin%3A%200px%20%3B%20margin-top%3A%204px%20%3B%20text-align%3A%20center%26quot%3B%26gt%3B%26lt%3Bbr%26gt%3B%26lt%3B%2Fp%26gt%3B%22%20style%3D%22shape%3Drect%3Bhtml%3D1%3Boverflow%3Dfill%3BwhiteSpace%3Dwrap%3B%22%20vertex%3D%221%22%20parent%3D%221%22%3E%3CmxGeometry%20x%3D%22260%22%20y%3D%22190%22%20width%3D%22100%22%20height%3D%22100%22%20as%3D%22geometry%22%2F%3E%3C%2FmxCell%3E%3C%2Froot%3E%3C%2FmxGraphModel%3E&lt;/span&gt;&lt;p style=&quot;font-size: 10px ; margin: 0px ; margin-top: 4px ; text-align: center&quot;&gt;&lt;br&gt;&lt;/p&gt;" style="shape=rect;html=1;overflow=fill;whiteSpace=wrap;" parent="1" vertex="1">
                    <mxGeometry x="260" y="380" width="100" height="100" as="geometry"/>
                </mxCell>
                <mxCell id="8" value="&lt;p style=&quot;margin: 0px ; margin-top: 4px ; text-align: center&quot;&gt;&lt;b&gt;Donnée&lt;/b&gt;&lt;/p&gt;&lt;hr&gt;&lt;p style=&quot;font-size: 10px ; margin: 0px ; margin-top: 4px ; text-align: center&quot;&gt;ID&lt;/p&gt;&lt;p style=&quot;font-size: 10px ; margin: 0px ; margin-top: 4px ; text-align: center&quot;&gt;IDessais&lt;/p&gt;&lt;p style=&quot;font-size: 10px ; margin: 0px ; margin-top: 4px ; text-align: center&quot;&gt;Pression (entrer)&lt;/p&gt;&lt;p style=&quot;font-size: 10px ; margin: 0px ; margin-top: 4px ; text-align: center&quot;&gt;pression (sortie)&lt;/p&gt;&lt;p style=&quot;font-size: 10px ; margin: 0px ; margin-top: 4px ; text-align: center&quot;&gt;&lt;br&gt;&lt;/p&gt;&lt;p style=&quot;font-size: 10px ; margin: 0px ; margin-top: 4px ; text-align: center&quot;&gt;charge max&lt;/p&gt;&lt;p style=&quot;font-size: 10px ; margin: 0px ; margin-top: 4px ; text-align: center&quot;&gt;&lt;br&gt;&lt;/p&gt;" style="shape=rect;html=1;overflow=fill;whiteSpace=wrap;" parent="1" vertex="1">
                    <mxGeometry x="720" y="380" width="100" height="170" as="geometry"/>
                </mxCell>
            </root>
        </mxGraphModel>
    </diagram>
</mxfile>